<?xml version="1.0" encoding="utf-8"?>
<!-- Generator: Adobe Illustrator 21.0.0, SVG Export Plug-In . SVG Version: 6.00 Build 0)  -->
<svg version="1.1" id="Calque_1" xmlns="http://www.w3.org/2000/svg" xmlns:xlink="http://www.w3.org/1999/xlink" x="0px" y="0px"
	 viewBox="0 0 420.9 595.3" style="enable-background:new 0 0 420.9 595.3;" xml:space="preserve">
<style type="text/css">
	.st0{stroke:#1D1D1B;stroke-miterlimit:10;}
	.st1{fill:#FFFFFF;stroke:#1D1D1B;stroke-miterlimit:10;}
</style>
<path class="st0" d="M180.8,232c-51.4,0-93,24.5-93,54.7c0,16.6,12.5,31.4,32.3,41.5c4,2,8.2,3.8,12.7,5.4c0,0,0,0-0.1,0
	c-6-1.4-12.7-5.4-12.7-5.4s-7,11.1-13.4,13c5-1.1,29-6.1,26.5-7.5c13.9,4.9,30.2,7.7,47.6,7.7c51.4,0,93-24.5,93-54.7
	S232.2,232,180.8,232z"/>
<path class="st1" d="M286.5,278.2c-39.9,0-72.3,19-72.3,42.5c0,12.9,9.8,24.5,25.2,32.3c3.1,1.6,6.4,3,9.9,4.2c0,0,0,0,0,0
	c-4.7-1.1-9.8-4.2-9.8-4.2s-5.5,8.6-10.5,10.1c3.9-0.9,22.5-4.7,20.6-5.8c10.8,3.8,23.5,6,37,6c39.9,0,72.3-19,72.3-42.5
	C358.8,297.2,326.4,278.2,286.5,278.2z"/>
</svg>
