<?xml version="1.0" encoding="utf-8"?>
<!-- Generator: Adobe Illustrator 21.0.0, SVG Export Plug-In . SVG Version: 6.00 Build 0)  -->
<svg version="1.1" id="Calque_1" xmlns="http://www.w3.org/2000/svg" xmlns:xlink="http://www.w3.org/1999/xlink" x="0px" y="0px"
	 viewBox="0 0 420.9 595.3" style="enable-background:new 0 0 420.9 595.3;" xml:space="preserve">
<style type="text/css">
	.st0{fill:#1D1D1B;}
</style>
<path class="st0" d="M122.9,401.9h-4.7c-5.1,0-9.2-4.1-9.2-9.2v-86.2c0-5.1,4.1-9.2,9.2-9.2h4.7c5.1,0,9.2,4.1,9.2,9.2v86.2
	C132.1,397.7,128,401.9,122.9,401.9z"/>
<path class="st0" d="M101.9,308.2v80.9c0,0-23.6-22.5-23.9-39.5C77.7,332.5,101.9,308.2,101.9,308.2z"/>
<path class="st0" d="M310.7,401h4.7c5.1,0,9.2-4.1,9.2-9.2v-86.2c0-5.1-4.1-9.2-9.2-9.2h-4.7c-5.1,0-9.2,4.1-9.2,9.2v86.2
	C301.5,396.8,305.6,401,310.7,401z"/>
<path class="st0" d="M331.1,307.3v80.9c0,0,23.6-22.5,23.9-39.5C355.2,331.6,331.1,307.3,331.1,307.3z"/>
<path class="st0" d="M138.6,363.4c0,0-28.9-126.8,76.7-126.9s78,126.9,78,126.9s-1.9-120-81.2-115.5S138.6,363.4,138.6,363.4z"/>
</svg>
