<?xml version="1.0" encoding="utf-8"?>
<!-- Generator: Adobe Illustrator 21.0.0, SVG Export Plug-In . SVG Version: 6.00 Build 0)  -->
<svg version="1.1" id="Calque_1" xmlns="http://www.w3.org/2000/svg" xmlns:xlink="http://www.w3.org/1999/xlink" x="0px" y="0px"
	 viewBox="0 0 420.9 595.3" style="enable-background:new 0 0 420.9 595.3;" xml:space="preserve">
<style type="text/css">
	.st0{fill:#1D1D1B;}
	.st1{fill:#FFFFFF;stroke:#1D1D1B;stroke-miterlimit:10;}
</style>
<path class="st0" d="M351.7,288.3l-112.9,63c-5.8,3.2-13.1,1.1-16.3-4.6L185,279.5c-3.2-5.8-1.1-13.1,4.6-16.3l112.9-63
	c5.8-3.2,13.1-1.1,16.3,4.6l37.5,67.3C359.6,277.8,357.5,285.1,351.7,288.3z"/>
<path class="st1" d="M239.4,351.1l-79,44.1c-5.8,3.2-13.1,1.1-16.3-4.6l-37.5-67.3c-3.2-5.8-1.1-13.1,4.6-16.3l79-44.1
	c5.8-3.2,13.1-1.1,16.3,4.6l37.5,67.3C247.2,340.5,245.2,347.8,239.4,351.1z"/>
</svg>
