<?xml version="1.0" encoding="utf-8"?>
<!-- Generator: Adobe Illustrator 21.0.0, SVG Export Plug-In . SVG Version: 6.00 Build 0)  -->
<svg version="1.1" id="Calque_1" xmlns="http://www.w3.org/2000/svg" xmlns:xlink="http://www.w3.org/1999/xlink" x="0px" y="0px"
	 viewBox="0 0 420.9 595.3" style="enable-background:new 0 0 420.9 595.3;" xml:space="preserve">
<style type="text/css">
	.st0{fill:#1D1D1B;stroke:#FFFFFF;stroke-miterlimit:10;}
	.st1{fill:#1D1D1B;}
</style>
<path class="st0" d="M96.3,214.3h228.4c6.6,0,12,5.4,12,12v185.4c0,6.6-5.4,12-12,12H96.3c-6.6,0-12-5.4-12-12V226.3
	C84.3,219.7,89.7,214.3,96.3,214.3z"/>
<path class="st1" d="M97.8,191.9h83c6.6,0,12,5.4,12,12v185.4c0,6.6-5.4,12-12,12h-83c-6.6,0-12-5.4-12-12V203.9
	C85.8,197.3,91.2,191.9,97.8,191.9z"/>
</svg>
